<svg id="레이어_1" data-name="레이어 1" xmlns="http://www.w3.org/2000/svg" viewBox="0 0 83.8 38.08"><defs><style>.cls-1{stroke:#fff;stroke-miterlimit:10;stroke-width:1.53px;}</style></defs><path class="cls-1" d="M180.39,298.88c-1.83.13-3.31.27-4.43.42a2.18,2.18,0,0,0-.61.15c-.1.05-.24.12-.42.19a1.8,1.8,0,0,1-1.33.19,25.55,25.55,0,0,1-4.13-1.68c-.66-.35-.95-.63-.88-.84s.51-.17,1.3,0a108.38,108.38,0,0,0,12.79.35q5.58-.12,12.07-.42a8.82,8.82,0,0,0,2.44-.38,3.37,3.37,0,0,0,.61-.27,2.76,2.76,0,0,1,1.19-.27,22.74,22.74,0,0,1,3.51.46,2.25,2.25,0,0,1,1.22.5.8.8,0,0,1,.31.76,1,1,0,0,1-.54.65,2.07,2.07,0,0,1-1.22.19q-3.36-.35-6.3-.46c-2.29-.08-5-.06-8.17,0l0,3c0,3.25,0,5.65-.08,7.17a30.48,30.48,0,0,1-.57,5.54c-.41,1-.8,1.45-1.18,1.37s-.61-.84-.61-2.21V298.57C183.92,298.62,182.27,298.73,180.39,298.88Zm4.28-17.07q-.61-.42-1.83-1.14c-.46-.26-.68-.45-.65-.58s.44-.3,1.26-.3a12.24,12.24,0,0,1,2.63.76,13.09,13.09,0,0,1,2.14,1,1.26,1.26,0,0,1,.69.58c.1.25,0,.57-.31.95s-.8.94-1.18,1.38l-1,1.14a13.71,13.71,0,0,0,2.29.84c.86.26,1.92.52,3.17.8a8.28,8.28,0,0,0,1.52.16,8.75,8.75,0,0,0,1-.08,5,5,0,0,1,1.64,0,16.2,16.2,0,0,1,3.47,1.3,2.42,2.42,0,0,1,1,.8.73.73,0,0,1,.16.76c-.1.26-.36.41-.77.46a4.36,4.36,0,0,1-1.71-.23l-1.61-.5c-2.87-.81-5-1.45-6.34-1.9a25.93,25.93,0,0,1-4.58-1.8,37.87,37.87,0,0,1-6.34,4.09,46.38,46.38,0,0,1-7.71,3.05c-.76.13-1.16.1-1.18-.08s.24-.31.88-.49a39.58,39.58,0,0,0,8.17-4.47,25.9,25.9,0,0,0,5.88-5.34l.15-.31C185.44,282.49,185.18,282.19,184.67,281.81Z" transform="translate(-167.82 -278.6)"/><path class="cls-1" d="M234,290.67c-1.48.08-2.93.19-4.35.34a2.69,2.69,0,0,0-.69.16,3.7,3.7,0,0,0-.42.19,1.27,1.27,0,0,1-.95.15,13.8,13.8,0,0,1-2.6-1c-.56-.36-.79-.61-.69-.76s.52-.16,1.26,0a41.19,41.19,0,0,0,4.7.11q2,0,5.88-.19l1.14,0a3.93,3.93,0,0,0,.46-.08,2.28,2.28,0,0,0,.35-.11,2.18,2.18,0,0,1,.61-.15,7.74,7.74,0,0,1,1.45,0c1.5,0,2.29.11,2.36.42s-.21.51-.8,1l-.23.19c-.76,1-1.56,2-2.4,3s-1.8,2.12-2.48,2.86a6,6,0,0,0,1.33,1.38,9.37,9.37,0,0,0,1.42.88,11.51,11.51,0,0,1,1.94,1.29,9.54,9.54,0,0,1,2.06,2.68,3.9,3.9,0,0,1,.5,1.37,1.21,1.21,0,0,1-.23.88.63.63,0,0,1-.57.23.8.8,0,0,1-.65-.35c-.28-.28-.69-.72-1.22-1.33-.33-.38-.87-1-1.61-1.91s-1.5-1.78-1.9-2.29c-.74-.84-1.37-1.54-1.88-2.1a49.9,49.9,0,0,1-5.34,4.24,41.7,41.7,0,0,1-7.94,4.31c-.74.26-1.16.32-1.26.19s.21-.39.95-.8a41.88,41.88,0,0,0,9.09-6.3,36.88,36.88,0,0,0,7.14-8.59l-1.15,0Zm-2.52-5.42a12.17,12.17,0,0,1-1.22-.8l-.73-.5c-.43-.48-.61-.8-.53-.95s.39-.08.95.15a25.35,25.35,0,0,0,3.63.69,38.93,38.93,0,0,0,4.54.26c.82,0,1.2.27,1.15.65a.9.9,0,0,1-.69.8c-.61.08-1.39.13-2.33.16h-2.59l-.92-.08A3.89,3.89,0,0,1,231.44,285.25Zm15.81-3.51a19.61,19.61,0,0,0-2.52-1.26c-.84-.28-1.19-.55-1-.81s.62-.3,1.41-.3a19,19,0,0,1,2.52.46,17.09,17.09,0,0,1,1.68.49l.61.2a1.63,1.63,0,0,1,.88.64,1.22,1.22,0,0,1,0,.77,1.3,1.3,0,0,0-.08.34,3.44,3.44,0,0,0,0,.42l-.08,20.49q-.07,5.38-.15,7.22a31.17,31.17,0,0,1-.5,4.32c-.33.87-.67,1.26-1,1.19s-.57-.82-.57-2.22V282.88C248.29,282.58,247.93,282.19,247.25,281.74Z" transform="translate(-167.82 -278.6)"/></svg>