<svg id="레이어_1" data-name="레이어 1" xmlns="http://www.w3.org/2000/svg" xmlns:xlink="http://www.w3.org/1999/xlink" viewBox="0 0 150 150"><defs><style>.cls-1{fill:url(#무제_그라디언트_43);}.cls-2{fill:url(#무제_그라디언트_43-2);}.cls-3{fill:url(#무제_그라디언트_43-3);}.cls-4{fill:url(#무제_그라디언트_43-4);}.cls-5{fill:url(#무제_그라디언트_43-5);}.cls-6{fill:url(#무제_그라디언트_43-6);}.cls-7{fill:url(#무제_그라디언트_43-7);}.cls-8{fill:url(#무제_그라디언트_43-8);}.cls-9{fill:url(#무제_그라디언트_43-9);}.cls-10{fill:url(#무제_그라디언트_43-10);}.cls-11{fill:url(#무제_그라디언트_43-11);}.cls-12{fill:url(#무제_그라디언트_43-12);}.cls-13{fill:url(#무제_그라디언트_43-13);}.cls-14{fill:url(#무제_그라디언트_43-14);}.cls-15{fill:url(#무제_그라디언트_43-15);}.cls-16{fill:url(#무제_그라디언트_43-16);}.cls-17{fill:url(#무제_그라디언트_43-17);}.cls-18{fill:url(#무제_그라디언트_43-18);}.cls-19{fill:url(#무제_그라디언트_43-19);}.cls-20{fill:url(#무제_그라디언트_43-20);}.cls-21{fill:url(#무제_그라디언트_43-21);}.cls-22{fill:url(#무제_그라디언트_43-22);}.cls-23{fill:url(#무제_그라디언트_43-23);}.cls-24{fill:url(#무제_그라디언트_43-24);}.cls-25{fill:url(#무제_그라디언트_43-25);}.cls-26{fill:url(#무제_그라디언트_43-26);}.cls-27{fill:url(#무제_그라디언트_43-27);}.cls-28{fill:url(#무제_그라디언트_43-28);}.cls-29{fill:url(#무제_그라디언트_43-29);}.cls-30{fill:url(#무제_그라디언트_43-30);}.cls-31{fill:url(#무제_그라디언트_43-31);}.cls-32{fill:url(#무제_그라디언트_43-32);}.cls-33{fill:url(#무제_그라디언트_43-33);}.cls-34{fill:url(#무제_그라디언트_43-34);}.cls-35{fill:url(#무제_그라디언트_43-35);}.cls-36{fill:url(#무제_그라디언트_43-36);}.cls-37{fill:url(#무제_그라디언트_43-37);}.cls-38{fill:url(#무제_그라디언트_43-38);}.cls-39{fill:url(#무제_그라디언트_43-39);}.cls-40{fill:url(#무제_그라디언트_43-40);}.cls-41{fill:url(#무제_그라디언트_43-41);}.cls-42{fill:url(#무제_그라디언트_43-42);}</style><linearGradient id="무제_그라디언트_43" x1="1743" y1="580.35" x2="1818" y2="580.35" gradientTransform="matrix(1, 0, 0, -1, -1743, 589)" gradientUnits="userSpaceOnUse"><stop offset="0" stop-color="#fff"/><stop offset="0.55" stop-color="#727070"/><stop offset="1" stop-color="#040000"/></linearGradient><linearGradient id="무제_그라디언트_43-2" x1="632" y1="574.58" x2="707" y2="574.58" gradientTransform="translate(707 589) rotate(180)" xlink:href="#무제_그라디언트_43"/><linearGradient id="무제_그라디언트_43-3" x1="1743" y1="568.81" x2="1818" y2="568.81" xlink:href="#무제_그라디언트_43"/><linearGradient id="무제_그라디언트_43-4" x1="632" y1="563.04" x2="707" y2="563.04" gradientTransform="translate(707 589) rotate(180)" xlink:href="#무제_그라디언트_43"/><linearGradient id="무제_그라디언트_43-5" x1="1743" y1="557.27" x2="1818" y2="557.27" xlink:href="#무제_그라디언트_43"/><linearGradient id="무제_그라디언트_43-6" x1="632" y1="551.5" x2="707" y2="551.5" gradientTransform="translate(707 589) rotate(180)" xlink:href="#무제_그라디언트_43"/><linearGradient id="무제_그라디언트_43-7" x1="1743" y1="545.73" x2="1818" y2="545.73" xlink:href="#무제_그라디언트_43"/><linearGradient id="무제_그라디언트_43-8" x1="632" y1="539.96" x2="707" y2="539.96" gradientTransform="translate(707 589) rotate(180)" xlink:href="#무제_그라디언트_43"/><linearGradient id="무제_그라디언트_43-9" x1="1743" y1="534.19" x2="1818" y2="534.19" xlink:href="#무제_그라디언트_43"/><linearGradient id="무제_그라디언트_43-10" x1="632" y1="528.42" x2="707" y2="528.42" gradientTransform="translate(707 589) rotate(180)" xlink:href="#무제_그라디언트_43"/><linearGradient id="무제_그라디언트_43-11" x1="1743" y1="522.65" x2="1818" y2="522.65" xlink:href="#무제_그라디언트_43"/><linearGradient id="무제_그라디언트_43-12" x1="632" y1="516.88" x2="707" y2="516.88" gradientTransform="translate(707 589) rotate(180)" xlink:href="#무제_그라디언트_43"/><linearGradient id="무제_그라디언트_43-13" x1="1743" y1="511.12" x2="1818" y2="511.12" xlink:href="#무제_그라디언트_43"/><linearGradient id="무제_그라디언트_43-14" x1="632" y1="505.35" x2="707" y2="505.35" gradientTransform="translate(707 589) rotate(180)" xlink:href="#무제_그라디언트_43"/><linearGradient id="무제_그라디언트_43-15" x1="1743" y1="499.58" x2="1818" y2="499.58" xlink:href="#무제_그라디언트_43"/><linearGradient id="무제_그라디언트_43-16" x1="632" y1="493.81" x2="707" y2="493.81" gradientTransform="translate(707 589) rotate(180)" xlink:href="#무제_그라디언트_43"/><linearGradient id="무제_그라디언트_43-17" x1="1743" y1="488.04" x2="1818" y2="488.04" xlink:href="#무제_그라디언트_43"/><linearGradient id="무제_그라디언트_43-18" x1="632" y1="482.27" x2="707" y2="482.27" gradientTransform="translate(707 589) rotate(180)" xlink:href="#무제_그라디언트_43"/><linearGradient id="무제_그라디언트_43-19" x1="1743" y1="476.5" x2="1818" y2="476.5" xlink:href="#무제_그라디언트_43"/><linearGradient id="무제_그라디언트_43-20" x1="632" y1="470.73" x2="707" y2="470.73" gradientTransform="translate(707 589) rotate(180)" xlink:href="#무제_그라디언트_43"/><linearGradient id="무제_그라디언트_43-21" x1="1743" y1="464.96" x2="1818" y2="464.96" xlink:href="#무제_그라디언트_43"/><linearGradient id="무제_그라디언트_43-22" x1="632" y1="459.19" x2="707" y2="459.19" gradientTransform="translate(707 589) rotate(180)" xlink:href="#무제_그라디언트_43"/><linearGradient id="무제_그라디언트_43-23" x1="1743" y1="453.42" x2="1818" y2="453.42" xlink:href="#무제_그라디언트_43"/><linearGradient id="무제_그라디언트_43-24" x1="632" y1="447.65" x2="707" y2="447.65" gradientTransform="translate(707 589) rotate(180)" xlink:href="#무제_그라디언트_43"/><linearGradient id="무제_그라디언트_43-25" x1="1743" y1="441.88" x2="1818" y2="441.88" xlink:href="#무제_그라디언트_43"/><linearGradient id="무제_그라디언트_43-26" x1="632" y1="586.12" x2="707" y2="586.12" gradientTransform="translate(707 589) rotate(180)" xlink:href="#무제_그라디언트_43"/><linearGradient id="무제_그라디언트_43-27" x1="1112.91" y1="-44.52" x2="1262.91" y2="-44.52" gradientTransform="matrix(0, -1, -1, 0, 37.51, 1262.91)" xlink:href="#무제_그라디언트_43"/><linearGradient id="무제_그라디언트_43-28" x1="1187.09" y1="-49.21" x2="1337.09" y2="-49.21" gradientTransform="translate(37.51 -1187.09) rotate(90)" xlink:href="#무제_그라디언트_43"/><linearGradient id="무제_그라디언트_43-29" x1="1112.91" y1="-53.9" x2="1262.91" y2="-53.9" gradientTransform="matrix(0, -1, -1, 0, 37.51, 1262.91)" xlink:href="#무제_그라디언트_43"/><linearGradient id="무제_그라디언트_43-30" x1="1187.09" y1="-58.58" x2="1337.09" y2="-58.58" gradientTransform="translate(37.51 -1187.09) rotate(90)" xlink:href="#무제_그라디언트_43"/><linearGradient id="무제_그라디언트_43-31" x1="1112.91" y1="-63.27" x2="1262.91" y2="-63.27" gradientTransform="matrix(0, -1, -1, 0, 37.51, 1262.91)" xlink:href="#무제_그라디언트_43"/><linearGradient id="무제_그라디언트_43-32" x1="1187.09" y1="-67.96" x2="1337.09" y2="-67.96" gradientTransform="translate(37.51 -1187.09) rotate(90)" xlink:href="#무제_그라디언트_43"/><linearGradient id="무제_그라디언트_43-33" x1="1112.91" y1="-72.65" x2="1262.91" y2="-72.65" gradientTransform="matrix(0, -1, -1, 0, 37.51, 1262.91)" xlink:href="#무제_그라디언트_43"/><linearGradient id="무제_그라디언트_43-34" x1="1187.09" y1="-77.33" x2="1337.09" y2="-77.33" gradientTransform="translate(37.51 -1187.09) rotate(90)" xlink:href="#무제_그라디언트_43"/><linearGradient id="무제_그라디언트_43-35" x1="1112.91" y1="-82.02" x2="1262.91" y2="-82.02" gradientTransform="matrix(0, -1, -1, 0, 37.51, 1262.91)" xlink:href="#무제_그라디언트_43"/><linearGradient id="무제_그라디언트_43-36" x1="1187.09" y1="-86.71" x2="1337.09" y2="-86.71" gradientTransform="translate(37.51 -1187.09) rotate(90)" xlink:href="#무제_그라디언트_43"/><linearGradient id="무제_그라디언트_43-37" x1="1112.91" y1="-91.4" x2="1262.91" y2="-91.4" gradientTransform="matrix(0, -1, -1, 0, 37.51, 1262.91)" xlink:href="#무제_그라디언트_43"/><linearGradient id="무제_그라디언트_43-38" x1="1187.09" y1="-96.08" x2="1337.09" y2="-96.08" gradientTransform="translate(37.51 -1187.09) rotate(90)" xlink:href="#무제_그라디언트_43"/><linearGradient id="무제_그라디언트_43-39" x1="1112.91" y1="-100.77" x2="1262.91" y2="-100.77" gradientTransform="matrix(0, -1, -1, 0, 37.51, 1262.91)" xlink:href="#무제_그라디언트_43"/><linearGradient id="무제_그라디언트_43-40" x1="1187.09" y1="-105.46" x2="1337.09" y2="-105.46" gradientTransform="translate(37.51 -1187.09) rotate(90)" xlink:href="#무제_그라디언트_43"/><linearGradient id="무제_그라디언트_43-41" x1="1112.91" y1="-110.15" x2="1262.91" y2="-110.15" gradientTransform="matrix(0, -1, -1, 0, 37.51, 1262.91)" xlink:href="#무제_그라디언트_43"/><linearGradient id="무제_그라디언트_43-42" x1="1187.09" y1="-39.83" x2="1337.09" y2="-39.83" gradientTransform="translate(37.51 -1187.09) rotate(90)" xlink:href="#무제_그라디언트_43"/></defs><polygon class="cls-1" points="75 11.54 37.5 5.77 0 5.77 0 11.54 75 11.54 75 11.54"/><polygon class="cls-2" points="0 17.31 37.5 11.54 75 11.54 75 17.31 0 17.31 0 17.31"/><polygon class="cls-3" points="75 23.08 37.5 17.31 0 17.31 0 23.08 75 23.08 75 23.08"/><polygon class="cls-4" points="0 28.85 37.5 23.08 75 23.08 75 28.85 0 28.85 0 28.85"/><polygon class="cls-5" points="75 34.62 37.5 28.85 0 28.85 0 34.62 75 34.62 75 34.62"/><polygon class="cls-6" points="0 40.38 37.5 34.62 75 34.62 75 40.38 0 40.38 0 40.38"/><polygon class="cls-7" points="75 46.15 37.5 40.38 0 40.38 0 46.15 75 46.15 75 46.15"/><polygon class="cls-8" points="0 51.92 37.5 46.15 75 46.15 75 51.92 0 51.92 0 51.92"/><polygon class="cls-9" points="75 57.69 37.5 51.92 0 51.92 0 57.69 75 57.69 75 57.69"/><polygon class="cls-10" points="0 63.46 37.5 57.69 75 57.69 75 63.46 0 63.46 0 63.46"/><polygon class="cls-11" points="75 69.23 37.5 63.46 0 63.46 0 69.23 75 69.23 75 69.23"/><polygon class="cls-12" points="0 75 37.5 69.23 75 69.23 75 75 0 75 0 75"/><polygon class="cls-13" points="75 80.77 37.5 75 0 75 0 80.77 75 80.77 75 80.77"/><polygon class="cls-14" points="0 86.54 37.5 80.77 75 80.77 75 86.54 0 86.54 0 86.54"/><polygon class="cls-15" points="75 92.31 37.5 86.54 0 86.54 0 92.31 75 92.31 75 92.31"/><polygon class="cls-16" points="0 98.08 37.5 92.31 75 92.31 75 98.08 0 98.08 0 98.08"/><polygon class="cls-17" points="75 103.85 37.5 98.08 0 98.08 0 103.85 75 103.85 75 103.85"/><polygon class="cls-18" points="0 109.61 37.5 103.85 75 103.85 75 109.61 0 109.61 0 109.61"/><polygon class="cls-19" points="75 115.39 37.5 109.61 0 109.61 0 115.39 75 115.39 75 115.39"/><polygon class="cls-20" points="0 121.15 37.5 115.39 75 115.39 75 121.15 0 121.15 0 121.15"/><polygon class="cls-21" points="75 126.92 37.5 121.15 0 121.15 0 126.92 75 126.92 75 126.92"/><polygon class="cls-22" points="0 132.69 37.5 126.92 75 126.92 75 132.69 0 132.69 0 132.69"/><polygon class="cls-23" points="75 138.46 37.5 132.69 0 132.69 0 138.46 75 138.46 75 138.46"/><polygon class="cls-24" points="0 144.23 37.5 138.46 75 138.46 75 144.23 0 144.23 0 144.23"/><polygon class="cls-25" points="75 150 37.5 144.23 0 144.23 0 150 75 150 75 150"/><polygon class="cls-26" points="75 5.77 0 5.77 0 5.77 37.5 0 75 5.77"/><polygon class="cls-27" points="84.38 0 79.69 75 79.69 150 84.38 150 84.38 0 84.38 0"/><polygon class="cls-28" points="89.06 150 84.38 75 84.38 0 89.06 0 89.06 150 89.06 150"/><polygon class="cls-29" points="93.75 0 89.06 75 89.06 150 93.75 150 93.75 0 93.75 0"/><polygon class="cls-30" points="98.44 150 93.75 75 93.75 0 98.44 0 98.44 150 98.44 150"/><polygon class="cls-31" points="103.13 0 98.44 75 98.44 150 103.13 150 103.13 0 103.13 0"/><polygon class="cls-32" points="107.81 150 103.13 75 103.13 0 107.81 0 107.81 150 107.81 150"/><polygon class="cls-33" points="112.5 0 107.81 75 107.81 150 112.5 150 112.5 0 112.5 0"/><polygon class="cls-34" points="117.19 150 112.5 75 112.5 0 117.19 0 117.19 150 117.19 150"/><polygon class="cls-35" points="121.88 0 117.19 75 117.19 150 121.88 150 121.88 0 121.88 0"/><polygon class="cls-36" points="126.56 150 121.88 75 121.88 0 126.56 0 126.56 150 126.56 150"/><polygon class="cls-37" points="131.25 0 126.56 75 126.56 150 131.25 150 131.25 0 131.25 0"/><polygon class="cls-38" points="135.94 150 131.25 75 131.25 0 135.94 0 135.94 150 135.94 150"/><polygon class="cls-39" points="140.63 0 135.94 75 135.94 150 140.63 150 140.63 0 140.63 0"/><polygon class="cls-40" points="145.31 150 140.63 75 140.63 0 145.31 0 145.31 150 145.31 150"/><polygon class="cls-41" points="150 0 145.31 75 145.31 150 150 150 150 0 150 0"/><polygon class="cls-42" points="79.69 0 79.69 150 79.69 150 75 75 79.69 0"/></svg>